solid ascii
  facet normal -5.555701e-001 -8.314697e-001 -0.000000e+000
    outer loop
      vertex   3.728856e+001 8.142507e+001 1.000000e+001
      vertex   3.660727e+001 8.188029e+001 2.000000e+001
      vertex   3.660727e+001 8.188029e+001 0.000000e+000
    endloop
  endfacet
  facet normal 0.000000e+000 0.000000e+000 -1.000000e+000
    outer loop
      vertex   4.814214e+001 8.800000e+001 0.000000e+000
      vertex   4.814214e+001 6.800000e+001 0.000000e+000
      vertex   3.500000e+001 8.800000e+001 0.000000e+000
    endloop
  endfacet
  facet normal 0.000000e+000 0.000000e+000 -1.000000e+000
    outer loop
      vertex   3.500000e+001 8.800000e+001 0.000000e+000
      vertex   3.796985e+001 8.096985e+001 0.000000e+000
      vertex   3.190983e+001 8.751057e+001 0.000000e+000
    endloop
  endfacet
  facet normal 0.000000e+000 0.000000e+000 -1.000000e+000
    outer loop
      vertex   3.500000e+001 8.800000e+001 0.000000e+000
      vertex   4.814214e+001 6.800000e+001 0.000000e+000
      vertex   3.796985e+001 8.096985e+001 0.000000e+000
    endloop
  endfacet
  facet normal 0.000000e+000 0.000000e+000 -1.000000e+000
    outer loop
      vertex   4.814214e+001 6.800000e+001 0.000000e+000
      vertex   3.500000e+001 6.800000e+001 0.000000e+000
      vertex   3.888029e+001 7.639273e+001 0.000000e+000
    endloop
  endfacet
  facet normal 0.000000e+000 0.000000e+000 -1.000000e+000
    outer loop
      vertex   4.814214e+001 6.800000e+001 0.000000e+000
      vertex   3.888029e+001 7.639273e+001 0.000000e+000
      vertex   3.920000e+001 7.800000e+001 0.000000e+000
    endloop
  endfacet
  facet normal 0.000000e+000 0.000000e+000 -1.000000e+000
    outer loop
      vertex   4.814214e+001 6.800000e+001 0.000000e+000
      vertex   3.920000e+001 7.800000e+001 0.000000e+000
      vertex   3.888029e+001 7.960727e+001 0.000000e+000
    endloop
  endfacet
  facet normal 0.000000e+000 0.000000e+000 -1.000000e+000
    outer loop
      vertex   4.814214e+001 6.800000e+001 0.000000e+000
      vertex   3.888029e+001 7.960727e+001 0.000000e+000
      vertex   3.796985e+001 8.096985e+001 0.000000e+000
    endloop
  endfacet
  facet normal 0.000000e+000 0.000000e+000 -1.000000e+000
    outer loop
      vertex   3.796985e+001 8.096985e+001 0.000000e+000
      vertex   3.660727e+001 8.188029e+001 0.000000e+000
      vertex   3.190983e+001 8.751057e+001 0.000000e+000
    endloop
  endfacet
  facet normal 0.000000e+000 0.000000e+000 -1.000000e+000
    outer loop
      vertex   3.660727e+001 8.188029e+001 0.000000e+000
      vertex   3.500000e+001 8.220000e+001 0.000000e+000
      vertex   3.190983e+001 8.751057e+001 0.000000e+000
    endloop
  endfacet
  facet normal 0.000000e+000 0.000000e+000 -1.000000e+000
    outer loop
      vertex   3.190983e+001 8.751057e+001 0.000000e+000
      vertex   3.500000e+001 8.220000e+001 0.000000e+000
      vertex   2.912215e+001 8.609017e+001 0.000000e+000
    endloop
  endfacet
  facet normal 0.000000e+000 0.000000e+000 -1.000000e+000
    outer loop
      vertex   3.500000e+001 8.220000e+001 0.000000e+000
      vertex   3.339273e+001 8.188029e+001 0.000000e+000
      vertex   2.912215e+001 8.609017e+001 0.000000e+000
    endloop
  endfacet
  facet normal 0.000000e+000 0.000000e+000 -1.000000e+000
    outer loop
      vertex   3.888029e+001 7.639273e+001 0.000000e+000
      vertex   3.500000e+001 6.800000e+001 0.000000e+000
      vertex   3.796985e+001 7.503015e+001 0.000000e+000
    endloop
  endfacet
  facet normal 0.000000e+000 0.000000e+000 -1.000000e+000
    outer loop
      vertex   3.339273e+001 8.188029e+001 0.000000e+000
      vertex   3.203015e+001 8.096985e+001 0.000000e+000
      vertex   2.912215e+001 8.609017e+001 0.000000e+000
    endloop
  endfacet
  facet normal 0.000000e+000 0.000000e+000 -1.000000e+000
    outer loop
      vertex   3.796985e+001 7.503015e+001 0.000000e+000
      vertex   3.500000e+001 6.800000e+001 0.000000e+000
      vertex   3.660727e+001 7.411971e+001 0.000000e+000
    endloop
  endfacet
  facet normal 0.000000e+000 0.000000e+000 -1.000000e+000
    outer loop
      vertex   2.912215e+001 8.609017e+001 0.000000e+000
      vertex   3.203015e+001 8.096985e+001 0.000000e+000
      vertex   2.690983e+001 8.387785e+001 0.000000e+000
    endloop
  endfacet
  facet normal -8.314697e-001 -5.555701e-001 0.000000e+000
    outer loop
      vertex   3.842507e+001 8.028856e+001 1.000000e+001
      vertex   3.796985e+001 8.096985e+001 0.000000e+000
      vertex   3.888029e+001 7.960727e+001 0.000000e+000
    endloop
  endfacet
  facet normal 0.000000e+000 -1.000000e+000 0.000000e+000
    outer loop
      vertex   3.500000e+001 6.800000e+001 2.000000e+001
      vertex   3.500000e+001 6.800000e+001 0.000000e+000
      vertex   4.021209e+001 6.800000e+001 1.156900e+001
    endloop
  endfacet
  facet normal 9.807853e-001 1.950905e-001 0.000000e+000
    outer loop
      vertex   3.095985e+001 7.719637e+001 1.000000e+001
      vertex   3.111971e+001 7.639273e+001 0.000000e+000
      vertex   3.080000e+001 7.800000e+001 0.000000e+000
    endloop
  endfacet
  facet normal 8.314697e-001 5.555701e-001 0.000000e+000
    outer loop
      vertex   3.157493e+001 7.571144e+001 1.000000e+001
      vertex   3.203015e+001 7.503015e+001 2.000000e+001
      vertex   3.203015e+001 7.503015e+001 0.000000e+000
    endloop
  endfacet
  facet normal 9.807853e-001 1.950905e-001 -0.000000e+000
    outer loop
      vertex   3.095985e+001 7.719637e+001 1.000000e+001
      vertex   3.080000e+001 7.800000e+001 0.000000e+000
      vertex   3.080000e+001 7.800000e+001 2.000000e+001
    endloop
  endfacet
  facet normal 0.000000e+000 -1.000000e+000 0.000000e+000
    outer loop
      vertex   4.400000e+001 6.800000e+001 5.900000e+000
      vertex   4.243100e+001 6.800000e+001 6.212094e+000
      vertex   4.814214e+001 6.800000e+001 0.000000e+000
    endloop
  endfacet
  facet normal -4.539903e-001 8.910066e-001 -4.329589e-008
    outer loop
      vertex   3.051599e+001 8.680037e+001 1.000000e+001
      vertex   3.190983e+001 8.751057e+001 0.000000e+000
      vertex   2.912215e+001 8.609017e+001 0.000000e+000
    endloop
  endfacet
  facet normal 0.000000e+000 -1.000000e+000 0.000000e+000
    outer loop
      vertex   4.021209e+001 6.800000e+001 1.156900e+001
      vertex   3.500000e+001 6.800000e+001 0.000000e+000
      vertex   3.990000e+001 6.800000e+001 1.000000e+001
    endloop
  endfacet
  facet normal 0.000000e+000 0.000000e+000 -1.000000e+000
    outer loop
      vertex   3.203015e+001 8.096985e+001 0.000000e+000
      vertex   3.111971e+001 7.960727e+001 0.000000e+000
      vertex   2.690983e+001 8.387785e+001 0.000000e+000
    endloop
  endfacet
  facet normal 0.000000e+000 0.000000e+000 -1.000000e+000
    outer loop
      vertex   3.660727e+001 7.411971e+001 0.000000e+000
      vertex   3.500000e+001 6.800000e+001 0.000000e+000
      vertex   3.500000e+001 7.380000e+001 0.000000e+000
    endloop
  endfacet
  facet normal 0.000000e+000 0.000000e+000 -1.000000e+000
    outer loop
      vertex   3.111971e+001 7.960727e+001 0.000000e+000
      vertex   3.080000e+001 7.800000e+001 0.000000e+000
      vertex   2.690983e+001 8.387785e+001 0.000000e+000
    endloop
  endfacet
  facet normal 0.000000e+000 0.000000e+000 -1.000000e+000
    outer loop
      vertex   3.500000e+001 7.380000e+001 0.000000e+000
      vertex   3.500000e+001 6.800000e+001 0.000000e+000
      vertex   3.339273e+001 7.411971e+001 0.000000e+000
    endloop
  endfacet
  facet normal 0.000000e+000 0.000000e+000 -1.000000e+000
    outer loop
      vertex   2.690983e+001 8.387785e+001 0.000000e+000
      vertex   3.080000e+001 7.800000e+001 0.000000e+000
      vertex   2.548944e+001 8.109017e+001 0.000000e+000
    endloop
  endfacet
  facet normal 0.000000e+000 0.000000e+000 -1.000000e+000
    outer loop
      vertex   3.080000e+001 7.800000e+001 0.000000e+000
      vertex   3.111971e+001 7.639273e+001 0.000000e+000
      vertex   2.548944e+001 8.109017e+001 0.000000e+000
    endloop
  endfacet
  facet normal 0.000000e+000 0.000000e+000 -1.000000e+000
    outer loop
      vertex   3.339273e+001 7.411971e+001 0.000000e+000
      vertex   3.500000e+001 6.800000e+001 0.000000e+000
      vertex   3.203015e+001 7.503015e+001 0.000000e+000
    endloop
  endfacet
  facet normal 0.000000e+000 0.000000e+000 -1.000000e+000
    outer loop
      vertex   3.111971e+001 7.639273e+001 0.000000e+000
      vertex   3.203015e+001 7.503015e+001 0.000000e+000
      vertex   2.548944e+001 8.109017e+001 0.000000e+000
    endloop
  endfacet
  facet normal 0.000000e+000 0.000000e+000 -1.000000e+000
    outer loop
      vertex   3.203015e+001 7.503015e+001 0.000000e+000
      vertex   3.500000e+001 6.800000e+001 0.000000e+000
      vertex   2.548944e+001 8.109017e+001 0.000000e+000
    endloop
  endfacet
  facet normal 0.000000e+000 0.000000e+000 -1.000000e+000
    outer loop
      vertex   2.548944e+001 8.109017e+001 0.000000e+000
      vertex   3.500000e+001 6.800000e+001 0.000000e+000
      vertex   2.500000e+001 7.800000e+001 0.000000e+000
    endloop
  endfacet
  facet normal 0.000000e+000 0.000000e+000 -1.000000e+000
    outer loop
      vertex   3.500000e+001 6.800000e+001 0.000000e+000
      vertex   3.190983e+001 6.848943e+001 0.000000e+000
      vertex   2.500000e+001 7.800000e+001 0.000000e+000
    endloop
  endfacet
  facet normal 0.000000e+000 0.000000e+000 -1.000000e+000
    outer loop
      vertex   2.500000e+001 7.800000e+001 0.000000e+000
      vertex   3.190983e+001 6.848943e+001 0.000000e+000
      vertex   2.548944e+001 7.490983e+001 0.000000e+000
    endloop
  endfacet
  facet normal 0.000000e+000 0.000000e+000 -1.000000e+000
    outer loop
      vertex   3.190983e+001 6.848943e+001 0.000000e+000
      vertex   2.912215e+001 6.990983e+001 0.000000e+000
      vertex   2.548944e+001 7.490983e+001 0.000000e+000
    endloop
  endfacet
  facet normal 0.000000e+000 0.000000e+000 -1.000000e+000
    outer loop
      vertex   2.548944e+001 7.490983e+001 0.000000e+000
      vertex   2.912215e+001 6.990983e+001 0.000000e+000
      vertex   2.690983e+001 7.212215e+001 0.000000e+000
    endloop
  endfacet
  facet normal 9.807853e-001 -1.950905e-001 0.000000e+000
    outer loop
      vertex   3.095985e+001 7.880363e+001 1.000000e+001
      vertex   3.080000e+001 7.800000e+001 0.000000e+000
      vertex   3.111971e+001 7.960727e+001 0.000000e+000
    endloop
  endfacet
  facet normal 9.807853e-001 -1.950905e-001 0.000000e+000
    outer loop
      vertex   3.095985e+001 7.880363e+001 1.000000e+001
      vertex   3.111971e+001 7.960727e+001 0.000000e+000
      vertex   3.111971e+001 7.960727e+001 2.000000e+001
    endloop
  endfacet
  facet normal 9.807853e-001 -1.950905e-001 0.000000e+000
    outer loop
      vertex   3.095985e+001 7.880363e+001 1.000000e+001
      vertex   3.080000e+001 7.800000e+001 2.000000e+001
      vertex   3.080000e+001 7.800000e+001 0.000000e+000
    endloop
  endfacet
  facet normal 8.314697e-001 -5.555701e-001 0.000000e+000
    outer loop
      vertex   3.157493e+001 8.028856e+001 1.000000e+001
      vertex   3.111971e+001 7.960727e+001 0.000000e+000
      vertex   3.203015e+001 8.096985e+001 0.000000e+000
    endloop
  endfacet
  facet normal 8.314697e-001 -5.555701e-001 0.000000e+000
    outer loop
      vertex   3.157493e+001 8.028856e+001 1.000000e+001
      vertex   3.203015e+001 8.096985e+001 0.000000e+000
      vertex   3.203015e+001 8.096985e+001 2.000000e+001
    endloop
  endfacet
  facet normal 8.314697e-001 -5.555701e-001 0.000000e+000
    outer loop
      vertex   3.157493e+001 8.028856e+001 1.000000e+001
      vertex   3.111971e+001 7.960727e+001 2.000000e+001
      vertex   3.111971e+001 7.960727e+001 0.000000e+000
    endloop
  endfacet
  facet normal 7.071068e-001 0.000000e+000 -7.071068e-001
    outer loop
      vertex   4.960660e+001 7.800000e+001 1.464466e+000
      vertex   5.107107e+001 6.800000e+001 2.928932e+000
      vertex   4.814214e+001 6.800000e+001 0.000000e+000
    endloop
  endfacet
  facet normal -8.314697e-001 -5.555701e-001 -0.000000e+000
    outer loop
      vertex   3.842507e+001 8.028856e+001 1.000000e+001
      vertex   3.796985e+001 8.096985e+001 2.000000e+001
      vertex   3.796985e+001 8.096985e+001 0.000000e+000
    endloop
  endfacet
  facet normal 7.071068e-001 0.000000e+000 -7.071068e-001
    outer loop
      vertex   4.960660e+001 7.800000e+001 1.464466e+000
      vertex   4.814214e+001 8.800000e+001 0.000000e+000
      vertex   5.107107e+001 8.800000e+001 2.928932e+000
    endloop
  endfacet
  facet normal 7.071068e-001 0.000000e+000 -7.071068e-001
    outer loop
      vertex   4.960660e+001 7.800000e+001 1.464466e+000
      vertex   4.814214e+001 6.800000e+001 0.000000e+000
      vertex   4.814214e+001 8.800000e+001 0.000000e+000
    endloop
  endfacet
  facet normal 0.000000e+000 1.000000e+000 0.000000e+000
    outer loop
      vertex   4.110086e+001 8.800000e+001 7.100862e+000
      vertex   4.814214e+001 8.800000e+001 0.000000e+000
      vertex   3.500000e+001 8.800000e+001 0.000000e+000
    endloop
  endfacet
  facet normal 0.000000e+000 1.000000e+000 0.000000e+000
    outer loop
      vertex   4.243100e+001 8.800000e+001 6.212094e+000
      vertex   4.814214e+001 8.800000e+001 0.000000e+000
      vertex   4.110086e+001 8.800000e+001 7.100862e+000
    endloop
  endfacet
  facet normal 0.000000e+000 1.000000e+000 0.000000e+000
    outer loop
      vertex   4.021209e+001 8.800000e+001 8.430998e+000
      vertex   4.110086e+001 8.800000e+001 7.100862e+000
      vertex   3.500000e+001 8.800000e+001 0.000000e+000
    endloop
  endfacet
  facet normal 0.000000e+000 1.000000e+000 0.000000e+000
    outer loop
      vertex   4.400000e+001 8.800000e+001 5.900000e+000
      vertex   4.814214e+001 8.800000e+001 0.000000e+000
      vertex   4.243100e+001 8.800000e+001 6.212094e+000
    endloop
  endfacet
  facet normal 0.000000e+000 1.000000e+000 0.000000e+000
    outer loop
      vertex   3.990000e+001 8.800000e+001 1.000000e+001
      vertex   4.021209e+001 8.800000e+001 8.430998e+000
      vertex   3.500000e+001 8.800000e+001 0.000000e+000
    endloop
  endfacet
  facet normal 0.000000e+000 1.000000e+000 0.000000e+000
    outer loop
      vertex   4.556900e+001 8.800000e+001 6.212094e+000
      vertex   4.814214e+001 8.800000e+001 0.000000e+000
      vertex   4.400000e+001 8.800000e+001 5.900000e+000
    endloop
  endfacet
  facet normal 0.000000e+000 1.000000e+000 -0.000000e+000
    outer loop
      vertex   4.021209e+001 8.800000e+001 1.156900e+001
      vertex   3.990000e+001 8.800000e+001 1.000000e+001
      vertex   3.500000e+001 8.800000e+001 0.000000e+000
    endloop
  endfacet
  facet normal 0.000000e+000 1.000000e+000 -0.000000e+000
    outer loop
      vertex   5.107107e+001 8.800000e+001 2.928932e+000
      vertex   4.814214e+001 8.800000e+001 0.000000e+000
      vertex   4.556900e+001 8.800000e+001 6.212094e+000
    endloop
  endfacet
  facet normal -9.807853e-001 1.950905e-001 -1.870699e-007
    outer loop
      vertex   3.904015e+001 7.719637e+001 1.000000e+001
      vertex   3.920000e+001 7.800000e+001 0.000000e+000
      vertex   3.888029e+001 7.639273e+001 0.000000e+000
    endloop
  endfacet
  facet normal -9.807857e-001 1.950882e-001 0.000000e+000
    outer loop
      vertex   3.904015e+001 7.719637e+001 1.000000e+001
      vertex   3.888029e+001 7.639273e+001 0.000000e+000
      vertex   3.888029e+001 7.639273e+001 2.000000e+001
    endloop
  endfacet
  facet normal 8.314697e-001 5.555701e-001 -0.000000e+000
    outer loop
      vertex   3.157493e+001 7.571144e+001 1.000000e+001
      vertex   3.111971e+001 7.639273e+001 0.000000e+000
      vertex   3.111971e+001 7.639273e+001 2.000000e+001
    endloop
  endfacet
  facet normal 5.555701e-001 -8.314697e-001 0.000000e+000
    outer loop
      vertex   3.271144e+001 8.142507e+001 1.000000e+001
      vertex   3.203015e+001 8.096985e+001 0.000000e+000
      vertex   3.339273e+001 8.188029e+001 0.000000e+000
    endloop
  endfacet
  facet normal 0.000000e+000 1.000000e+000 0.000000e+000
    outer loop
      vertex   3.500000e+001 8.800000e+001 2.000000e+001
      vertex   4.021209e+001 8.800000e+001 1.156900e+001
      vertex   3.500000e+001 8.800000e+001 0.000000e+000
    endloop
  endfacet
  facet normal 5.555701e-001 -8.314697e-001 0.000000e+000
    outer loop
      vertex   3.271144e+001 8.142507e+001 1.000000e+001
      vertex   3.339273e+001 8.188029e+001 0.000000e+000
      vertex   3.339273e+001 8.188029e+001 2.000000e+001
    endloop
  endfacet
  facet normal 8.314697e-001 5.555701e-001 0.000000e+000
    outer loop
      vertex   3.157493e+001 7.571144e+001 1.000000e+001
      vertex   3.203015e+001 7.503015e+001 0.000000e+000
      vertex   3.111971e+001 7.639273e+001 0.000000e+000
    endloop
  endfacet
  facet normal 5.555701e-001 8.314697e-001 0.000000e+000
    outer loop
      vertex   3.271144e+001 7.457493e+001 1.000000e+001
      vertex   3.339273e+001 7.411971e+001 2.000000e+001
      vertex   3.339273e+001 7.411971e+001 0.000000e+000
    endloop
  endfacet
  facet normal 5.555701e-001 8.314697e-001 -0.000000e+000
    outer loop
      vertex   3.271144e+001 7.457493e+001 1.000000e+001
      vertex   3.203015e+001 7.503015e+001 0.000000e+000
      vertex   3.203015e+001 7.503015e+001 2.000000e+001
    endloop
  endfacet
  facet normal 5.555701e-001 -8.314697e-001 0.000000e+000
    outer loop
      vertex   3.271144e+001 8.142507e+001 1.000000e+001
      vertex   3.203015e+001 8.096985e+001 2.000000e+001
      vertex   3.203015e+001 8.096985e+001 0.000000e+000
    endloop
  endfacet
  facet normal 1.950882e-001 -9.807857e-001 0.000000e+000
    outer loop
      vertex   3.419637e+001 8.204015e+001 1.000000e+001
      vertex   3.339273e+001 8.188029e+001 0.000000e+000
      vertex   3.500000e+001 8.220000e+001 0.000000e+000
    endloop
  endfacet
  facet normal 1.950882e-001 -9.807857e-001 0.000000e+000
    outer loop
      vertex   3.419637e+001 8.204015e+001 1.000000e+001
      vertex   3.500000e+001 8.220000e+001 0.000000e+000
      vertex   3.500000e+001 8.220000e+001 2.000000e+001
    endloop
  endfacet
  facet normal 1.950882e-001 -9.807857e-001 0.000000e+000
    outer loop
      vertex   3.419637e+001 8.204015e+001 1.000000e+001
      vertex   3.339273e+001 8.188029e+001 2.000000e+001
      vertex   3.339273e+001 8.188029e+001 0.000000e+000
    endloop
  endfacet
  facet normal -1.950882e-001 -9.807857e-001 0.000000e+000
    outer loop
      vertex   3.580363e+001 8.204015e+001 1.000000e+001
      vertex   3.500000e+001 8.220000e+001 0.000000e+000
      vertex   3.660727e+001 8.188029e+001 0.000000e+000
    endloop
  endfacet
  facet normal -1.950882e-001 -9.807857e-001 0.000000e+000
    outer loop
      vertex   3.580363e+001 8.204015e+001 1.000000e+001
      vertex   3.660727e+001 8.188029e+001 0.000000e+000
      vertex   3.660727e+001 8.188029e+001 2.000000e+001
    endloop
  endfacet
  facet normal -1.950882e-001 -9.807857e-001 -0.000000e+000
    outer loop
      vertex   3.580363e+001 8.204015e+001 1.000000e+001
      vertex   3.500000e+001 8.220000e+001 2.000000e+001
      vertex   3.500000e+001 8.220000e+001 0.000000e+000
    endloop
  endfacet
  facet normal -5.555701e-001 -8.314697e-001 0.000000e+000
    outer loop
      vertex   3.728856e+001 8.142507e+001 1.000000e+001
      vertex   3.660727e+001 8.188029e+001 0.000000e+000
      vertex   3.796985e+001 8.096985e+001 0.000000e+000
    endloop
  endfacet
  facet normal -5.555701e-001 -8.314697e-001 0.000000e+000
    outer loop
      vertex   3.728856e+001 8.142507e+001 1.000000e+001
      vertex   3.796985e+001 8.096985e+001 0.000000e+000
      vertex   3.796985e+001 8.096985e+001 2.000000e+001
    endloop
  endfacet
  facet normal 9.807853e-001 1.950905e-001 0.000000e+000
    outer loop
      vertex   3.095985e+001 7.719637e+001 1.000000e+001
      vertex   3.111971e+001 7.639273e+001 2.000000e+001
      vertex   3.111971e+001 7.639273e+001 0.000000e+000
    endloop
  endfacet
  facet normal 0.000000e+000 -1.000000e+000 0.000000e+000
    outer loop
      vertex   4.021209e+001 6.800000e+001 8.430998e+000
      vertex   3.500000e+001 6.800000e+001 0.000000e+000
      vertex   4.110086e+001 6.800000e+001 7.100862e+000
    endloop
  endfacet
  facet normal 0.000000e+000 -1.000000e+000 -0.000000e+000
    outer loop
      vertex   4.243100e+001 6.800000e+001 6.212094e+000
      vertex   4.110086e+001 6.800000e+001 7.100862e+000
      vertex   3.500000e+001 6.800000e+001 0.000000e+000
    endloop
  endfacet
  facet normal 0.000000e+000 -1.000000e+000 -0.000000e+000
    outer loop
      vertex   4.814214e+001 6.800000e+001 0.000000e+000
      vertex   4.243100e+001 6.800000e+001 6.212094e+000
      vertex   3.500000e+001 6.800000e+001 0.000000e+000
    endloop
  endfacet
  facet normal 0.000000e+000 -1.000000e+000 0.000000e+000
    outer loop
      vertex   3.990000e+001 6.800000e+001 1.000000e+001
      vertex   3.500000e+001 6.800000e+001 0.000000e+000
      vertex   4.021209e+001 6.800000e+001 8.430998e+000
    endloop
  endfacet
  facet normal -4.539901e-001 -8.910068e-001 0.000000e+000
    outer loop
      vertex   3.051599e+001 6.919963e+001 1.000000e+001
      vertex   3.190983e+001 6.848943e+001 0.000000e+000
      vertex   3.190983e+001 6.848943e+001 2.000000e+001
    endloop
  endfacet
  facet normal -5.555701e-001 8.314697e-001 0.000000e+000
    outer loop
      vertex   3.728856e+001 7.457493e+001 1.000000e+001
      vertex   3.660727e+001 7.411971e+001 0.000000e+000
      vertex   3.660727e+001 7.411971e+001 2.000000e+001
    endloop
  endfacet
  facet normal 0.000000e+000 -1.000000e+000 0.000000e+000
    outer loop
      vertex   4.556900e+001 6.800000e+001 6.212094e+000
      vertex   4.400000e+001 6.800000e+001 5.900000e+000
      vertex   4.814214e+001 6.800000e+001 0.000000e+000
    endloop
  endfacet
  facet normal -1.564340e-001 9.876884e-001 3.618545e-007
    outer loop
      vertex   3.345491e+001 8.775528e+001 1.000000e+001
      vertex   3.500000e+001 8.800000e+001 0.000000e+000
      vertex   3.190983e+001 8.751057e+001 0.000000e+000
    endloop
  endfacet
  facet normal -4.539903e-001 -8.910066e-001 -4.329589e-008
    outer loop
      vertex   3.051599e+001 6.919963e+001 1.000000e+001
      vertex   2.912215e+001 6.990983e+001 0.000000e+000
      vertex   3.190983e+001 6.848943e+001 0.000000e+000
    endloop
  endfacet
  facet normal 0.000000e+000 -1.000000e+000 0.000000e+000
    outer loop
      vertex   4.689914e+001 6.800000e+001 7.100862e+000
      vertex   4.556900e+001 6.800000e+001 6.212094e+000
      vertex   4.814214e+001 6.800000e+001 0.000000e+000
    endloop
  endfacet
  facet normal 0.000000e+000 -1.000000e+000 0.000000e+000
    outer loop
      vertex   5.107107e+001 6.800000e+001 2.928932e+000
      vertex   4.689914e+001 6.800000e+001 7.100862e+000
      vertex   4.814214e+001 6.800000e+001 0.000000e+000
    endloop
  endfacet
  facet normal -8.314697e-001 -5.555701e-001 0.000000e+000
    outer loop
      vertex   3.842507e+001 8.028856e+001 1.000000e+001
      vertex   3.888029e+001 7.960727e+001 0.000000e+000
      vertex   3.888029e+001 7.960727e+001 2.000000e+001
    endloop
  endfacet
  facet normal -5.555701e-001 8.314697e-001 0.000000e+000
    outer loop
      vertex   3.728856e+001 7.457493e+001 1.000000e+001
      vertex   3.796985e+001 7.503015e+001 2.000000e+001
      vertex   3.796985e+001 7.503015e+001 0.000000e+000
    endloop
  endfacet
  facet normal -7.071062e-001 -7.071074e-001 -0.000000e+000
    outer loop
      vertex   2.801599e+001 7.101599e+001 1.000000e+001
      vertex   2.690983e+001 7.212215e+001 2.000000e+001
      vertex   2.690983e+001 7.212215e+001 0.000000e+000
    endloop
  endfacet
  facet normal -1.564317e-001 9.876888e-001 0.000000e+000
    outer loop
      vertex   3.345491e+001 8.775528e+001 1.000000e+001
      vertex   3.190983e+001 8.751057e+001 0.000000e+000
      vertex   3.190983e+001 8.751057e+001 2.000000e+001
    endloop
  endfacet
  facet normal 5.555701e-001 8.314697e-001 0.000000e+000
    outer loop
      vertex   3.271144e+001 7.457493e+001 1.000000e+001
      vertex   3.339273e+001 7.411971e+001 0.000000e+000
      vertex   3.203015e+001 7.503015e+001 0.000000e+000
    endloop
  endfacet
  facet normal -7.071080e-001 -7.071056e-001 0.000000e+000
    outer loop
      vertex   2.801599e+001 7.101599e+001 1.000000e+001
      vertex   2.912215e+001 6.990983e+001 0.000000e+000
      vertex   2.912215e+001 6.990983e+001 2.000000e+001
    endloop
  endfacet
  facet normal -9.807853e-001 -1.950905e-001 -1.870699e-007
    outer loop
      vertex   3.904015e+001 7.880363e+001 1.000000e+001
      vertex   3.888029e+001 7.960727e+001 0.000000e+000
      vertex   3.920000e+001 7.800000e+001 0.000000e+000
    endloop
  endfacet
  facet normal -9.807848e-001 -1.950927e-001 0.000000e+000
    outer loop
      vertex   3.904015e+001 7.880363e+001 1.000000e+001
      vertex   3.920000e+001 7.800000e+001 0.000000e+000
      vertex   3.920000e+001 7.800000e+001 2.000000e+001
    endloop
  endfacet
  facet normal -1.564363e-001 9.876881e-001 0.000000e+000
    outer loop
      vertex   3.345491e+001 8.775528e+001 1.000000e+001
      vertex   3.500000e+001 8.800000e+001 2.000000e+001
      vertex   3.500000e+001 8.800000e+001 0.000000e+000
    endloop
  endfacet
  facet normal -9.807857e-001 -1.950882e-001 -0.000000e+000
    outer loop
      vertex   3.904015e+001 7.880363e+001 1.000000e+001
      vertex   3.888029e+001 7.960727e+001 2.000000e+001
      vertex   3.888029e+001 7.960727e+001 0.000000e+000
    endloop
  endfacet
  facet normal -8.910060e-001 -4.539915e-001 -0.000000e+000
    outer loop
      vertex   2.619963e+001 7.351599e+001 1.000000e+001
      vertex   2.548944e+001 7.490983e+001 2.000000e+001
      vertex   2.548944e+001 7.490983e+001 0.000000e+000
    endloop
  endfacet
  facet normal -1.950882e-001 9.807857e-001 0.000000e+000
    outer loop
      vertex   3.580363e+001 7.395985e+001 1.000000e+001
      vertex   3.660727e+001 7.411971e+001 0.000000e+000
      vertex   3.500000e+001 7.380000e+001 0.000000e+000
    endloop
  endfacet
  facet normal -9.807848e-001 1.950927e-001 0.000000e+000
    outer loop
      vertex   3.904015e+001 7.719637e+001 1.000000e+001
      vertex   3.920000e+001 7.800000e+001 2.000000e+001
      vertex   3.920000e+001 7.800000e+001 0.000000e+000
    endloop
  endfacet
  facet normal -8.314697e-001 5.555701e-001 0.000000e+000
    outer loop
      vertex   3.842507e+001 7.571144e+001 1.000000e+001
      vertex   3.888029e+001 7.639273e+001 0.000000e+000
      vertex   3.796985e+001 7.503015e+001 0.000000e+000
    endloop
  endfacet
  facet normal -8.314697e-001 5.555701e-001 0.000000e+000
    outer loop
      vertex   3.842507e+001 7.571144e+001 1.000000e+001
      vertex   3.796985e+001 7.503015e+001 0.000000e+000
      vertex   3.796985e+001 7.503015e+001 2.000000e+001
    endloop
  endfacet
  facet normal -8.314697e-001 5.555701e-001 0.000000e+000
    outer loop
      vertex   3.842507e+001 7.571144e+001 1.000000e+001
      vertex   3.888029e+001 7.639273e+001 2.000000e+001
      vertex   3.888029e+001 7.639273e+001 0.000000e+000
    endloop
  endfacet
  facet normal -1.564317e-001 -9.876888e-001 -0.000000e+000
    outer loop
      vertex   3.345491e+001 6.824472e+001 1.000000e+001
      vertex   3.190983e+001 6.848943e+001 2.000000e+001
      vertex   3.190983e+001 6.848943e+001 0.000000e+000
    endloop
  endfacet
  facet normal -5.555701e-001 8.314697e-001 0.000000e+000
    outer loop
      vertex   3.728856e+001 7.457493e+001 1.000000e+001
      vertex   3.796985e+001 7.503015e+001 0.000000e+000
      vertex   3.660727e+001 7.411971e+001 0.000000e+000
    endloop
  endfacet
  facet normal -1.564363e-001 -9.876881e-001 0.000000e+000
    outer loop
      vertex   3.345491e+001 6.824472e+001 1.000000e+001
      vertex   3.500000e+001 6.800000e+001 0.000000e+000
      vertex   3.500000e+001 6.800000e+001 2.000000e+001
    endloop
  endfacet
  facet normal -1.564340e-001 -9.876884e-001 3.618545e-007
    outer loop
      vertex   3.345491e+001 6.824472e+001 1.000000e+001
      vertex   3.190983e+001 6.848943e+001 0.000000e+000
      vertex   3.500000e+001 6.800000e+001 0.000000e+000
    endloop
  endfacet
  facet normal -4.539905e-001 -8.910065e-001 -0.000000e+000
    outer loop
      vertex   3.051599e+001 6.919963e+001 1.000000e+001
      vertex   2.912215e+001 6.990983e+001 2.000000e+001
      vertex   2.912215e+001 6.990983e+001 0.000000e+000
    endloop
  endfacet
  facet normal 1.950882e-001 9.807857e-001 0.000000e+000
    outer loop
      vertex   3.419637e+001 7.395985e+001 1.000000e+001
      vertex   3.500000e+001 7.380000e+001 2.000000e+001
      vertex   3.500000e+001 7.380000e+001 0.000000e+000
    endloop
  endfacet
  facet normal -4.539905e-001 8.910065e-001 0.000000e+000
    outer loop
      vertex   3.051599e+001 8.680037e+001 1.000000e+001
      vertex   2.912215e+001 8.609017e+001 0.000000e+000
      vertex   2.912215e+001 8.609017e+001 2.000000e+001
    endloop
  endfacet
  facet normal -9.876883e-001 -1.564345e-001 -1.538683e-007
    outer loop
      vertex   2.524472e+001 7.645491e+001 1.000000e+001
      vertex   2.500000e+001 7.800000e+001 0.000000e+000
      vertex   2.548944e+001 7.490983e+001 0.000000e+000
    endloop
  endfacet
  facet normal -7.071071e-001 7.071065e-001 2.023047e-007
    outer loop
      vertex   2.801599e+001 8.498401e+001 1.000000e+001
      vertex   2.912215e+001 8.609017e+001 0.000000e+000
      vertex   2.690983e+001 8.387785e+001 0.000000e+000
    endloop
  endfacet
  facet normal -4.539901e-001 8.910068e-001 0.000000e+000
    outer loop
      vertex   3.051599e+001 8.680037e+001 1.000000e+001
      vertex   3.190983e+001 8.751057e+001 2.000000e+001
      vertex   3.190983e+001 8.751057e+001 0.000000e+000
    endloop
  endfacet
  facet normal -9.876882e-001 1.564355e-001 0.000000e+000
    outer loop
      vertex   2.524472e+001 7.954509e+001 1.000000e+001
      vertex   2.548944e+001 8.109017e+001 2.000000e+001
      vertex   2.548944e+001 8.109017e+001 0.000000e+000
    endloop
  endfacet
  facet normal -7.071071e-001 -7.071065e-001 2.023047e-007
    outer loop
      vertex   2.801599e+001 7.101599e+001 1.000000e+001
      vertex   2.690983e+001 7.212215e+001 0.000000e+000
      vertex   2.912215e+001 6.990983e+001 0.000000e+000
    endloop
  endfacet
  facet normal -1.950882e-001 9.807857e-001 0.000000e+000
    outer loop
      vertex   3.580363e+001 7.395985e+001 1.000000e+001
      vertex   3.660727e+001 7.411971e+001 2.000000e+001
      vertex   3.660727e+001 7.411971e+001 0.000000e+000
    endloop
  endfacet
  facet normal -9.876885e-001 1.564335e-001 0.000000e+000
    outer loop
      vertex   2.524472e+001 7.954509e+001 1.000000e+001
      vertex   2.500000e+001 7.800000e+001 0.000000e+000
      vertex   2.500000e+001 7.800000e+001 2.000000e+001
    endloop
  endfacet
  facet normal -8.910070e-001 -4.539896e-001 0.000000e+000
    outer loop
      vertex   2.619963e+001 7.351599e+001 1.000000e+001
      vertex   2.690983e+001 7.212215e+001 0.000000e+000
      vertex   2.690983e+001 7.212215e+001 2.000000e+001
    endloop
  endfacet
  facet normal -8.910065e-001 -4.539905e-001 1.731836e-007
    outer loop
      vertex   2.619963e+001 7.351599e+001 1.000000e+001
      vertex   2.548944e+001 7.490983e+001 0.000000e+000
      vertex   2.690983e+001 7.212215e+001 0.000000e+000
    endloop
  endfacet
  facet normal -9.876885e-001 -1.564335e-001 -0.000000e+000
    outer loop
      vertex   2.524472e+001 7.645491e+001 1.000000e+001
      vertex   2.500000e+001 7.800000e+001 2.000000e+001
      vertex   2.500000e+001 7.800000e+001 0.000000e+000
    endloop
  endfacet
  facet normal -1.950882e-001 9.807857e-001 0.000000e+000
    outer loop
      vertex   3.580363e+001 7.395985e+001 1.000000e+001
      vertex   3.500000e+001 7.380000e+001 0.000000e+000
      vertex   3.500000e+001 7.380000e+001 2.000000e+001
    endloop
  endfacet
  facet normal -9.876882e-001 -1.564355e-001 0.000000e+000
    outer loop
      vertex   2.524472e+001 7.645491e+001 1.000000e+001
      vertex   2.548944e+001 7.490983e+001 0.000000e+000
      vertex   2.548944e+001 7.490983e+001 2.000000e+001
    endloop
  endfacet
  facet normal 1.950882e-001 9.807857e-001 0.000000e+000
    outer loop
      vertex   3.419637e+001 7.395985e+001 1.000000e+001
      vertex   3.500000e+001 7.380000e+001 0.000000e+000
      vertex   3.339273e+001 7.411971e+001 0.000000e+000
    endloop
  endfacet
  facet normal 1.950882e-001 9.807857e-001 -0.000000e+000
    outer loop
      vertex   3.419637e+001 7.395985e+001 1.000000e+001
      vertex   3.339273e+001 7.411971e+001 0.000000e+000
      vertex   3.339273e+001 7.411971e+001 2.000000e+001
    endloop
  endfacet
  facet normal -7.071080e-001 7.071056e-001 0.000000e+000
    outer loop
      vertex   2.801599e+001 8.498401e+001 1.000000e+001
      vertex   2.912215e+001 8.609017e+001 2.000000e+001
      vertex   2.912215e+001 8.609017e+001 0.000000e+000
    endloop
  endfacet
  facet normal -9.876883e-001 1.564345e-001 -1.538683e-007
    outer loop
      vertex   2.524472e+001 7.954509e+001 1.000000e+001
      vertex   2.548944e+001 8.109017e+001 0.000000e+000
      vertex   2.500000e+001 7.800000e+001 0.000000e+000
    endloop
  endfacet
  facet normal -8.910070e-001 4.539896e-001 0.000000e+000
    outer loop
      vertex   2.619963e+001 8.248401e+001 1.000000e+001
      vertex   2.690983e+001 8.387785e+001 2.000000e+001
      vertex   2.690983e+001 8.387785e+001 0.000000e+000
    endloop
  endfacet
  facet normal -7.071062e-001 7.071074e-001 0.000000e+000
    outer loop
      vertex   2.801599e+001 8.498401e+001 1.000000e+001
      vertex   2.690983e+001 8.387785e+001 0.000000e+000
      vertex   2.690983e+001 8.387785e+001 2.000000e+001
    endloop
  endfacet
  facet normal -8.910060e-001 4.539915e-001 0.000000e+000
    outer loop
      vertex   2.619963e+001 8.248401e+001 1.000000e+001
      vertex   2.548944e+001 8.109017e+001 0.000000e+000
      vertex   2.548944e+001 8.109017e+001 2.000000e+001
    endloop
  endfacet
  facet normal -8.910065e-001 4.539905e-001 1.731836e-007
    outer loop
      vertex   2.619963e+001 8.248401e+001 1.000000e+001
      vertex   2.690983e+001 8.387785e+001 0.000000e+000
      vertex   2.548944e+001 8.109017e+001 0.000000e+000
    endloop
  endfacet
  facet normal 7.071068e-001 0.000000e+000 -7.071068e-001
    outer loop
      vertex   4.960660e+001 7.800000e+001 1.464466e+000
      vertex   5.107107e+001 8.800000e+001 2.928932e+000
      vertex   5.107107e+001 6.800000e+001 2.928932e+000
    endloop
  endfacet
  facet normal 0.000000e+000 1.000000e+000 0.000000e+000
    outer loop
      vertex   4.689914e+001 8.800000e+001 7.100862e+000
      vertex   5.107107e+001 8.800000e+001 2.928932e+000
      vertex   4.556900e+001 8.800000e+001 6.212094e+000
    endloop
  endfacet
  facet normal 0.000000e+000 1.000000e+000 -0.000000e+000
    outer loop
      vertex   5.209017e+001 8.800000e+001 4.122148e+000
      vertex   5.107107e+001 8.800000e+001 2.928932e+000
      vertex   4.689914e+001 8.800000e+001 7.100862e+000
    endloop
  endfacet
  facet normal 7.604054e-001 0.000000e+000 -6.494487e-001
    outer loop
      vertex   5.158062e+001 7.800000e+001 3.525540e+000
      vertex   5.107107e+001 8.800000e+001 2.928932e+000
      vertex   5.209017e+001 8.800000e+001 4.122148e+000
    endloop
  endfacet
  facet normal 0.000000e+000 -1.000000e+000 0.000000e+000
    outer loop
      vertex   5.209017e+001 6.800000e+001 4.122148e+000
      vertex   4.778791e+001 6.800000e+001 8.430998e+000
      vertex   5.107107e+001 6.800000e+001 2.928932e+000
    endloop
  endfacet
  facet normal 0.000000e+000 -1.000000e+000 0.000000e+000
    outer loop
      vertex   4.778791e+001 6.800000e+001 8.430998e+000
      vertex   4.689914e+001 6.800000e+001 7.100862e+000
      vertex   5.107107e+001 6.800000e+001 2.928932e+000
    endloop
  endfacet
  facet normal 7.604054e-001 0.000000e+000 -6.494487e-001
    outer loop
      vertex   5.158062e+001 7.800000e+001 3.525540e+000
      vertex   5.209017e+001 6.800000e+001 4.122148e+000
      vertex   5.107107e+001 6.800000e+001 2.928932e+000
    endloop
  endfacet
  facet normal 7.604054e-001 0.000000e+000 -6.494487e-001
    outer loop
      vertex   5.158062e+001 7.800000e+001 3.525540e+000
      vertex   5.107107e+001 6.800000e+001 2.928932e+000
      vertex   5.107107e+001 8.800000e+001 2.928932e+000
    endloop
  endfacet
  facet normal 7.604054e-001 0.000000e+000 -6.494487e-001
    outer loop
      vertex   5.158062e+001 7.800000e+001 3.525540e+000
      vertex   5.209017e+001 8.800000e+001 4.122148e+000
      vertex   5.209017e+001 6.800000e+001 4.122148e+000
    endloop
  endfacet
  facet normal 0.000000e+000 -1.000000e+000 0.000000e+000
    outer loop
      vertex   4.778791e+001 6.800000e+001 1.156900e+001
      vertex   4.810000e+001 6.800000e+001 1.000000e+001
      vertex   5.209017e+001 6.800000e+001 4.122148e+000
    endloop
  endfacet
  facet normal 0.000000e+000 -1.000000e+000 0.000000e+000
    outer loop
      vertex   4.810000e+001 6.800000e+001 1.000000e+001
      vertex   4.778791e+001 6.800000e+001 8.430998e+000
      vertex   5.209017e+001 6.800000e+001 4.122148e+000
    endloop
  endfacet
  facet normal 8.910066e-001 0.000000e+000 -4.539904e-001
    outer loop
      vertex   5.280037e+001 7.800000e+001 5.515989e+000
      vertex   5.209017e+001 8.800000e+001 4.122148e+000
      vertex   5.351057e+001 8.800000e+001 6.909830e+000
    endloop
  endfacet
  facet normal 0.000000e+000 1.000000e+000 -0.000000e+000
    outer loop
      vertex   5.351057e+001 8.800000e+001 6.909830e+000
      vertex   5.209017e+001 8.800000e+001 4.122148e+000
      vertex   4.778791e+001 8.800000e+001 1.156900e+001
    endloop
  endfacet
  facet normal 0.000000e+000 1.000000e+000 0.000000e+000
    outer loop
      vertex   4.778791e+001 8.800000e+001 1.156900e+001
      vertex   5.209017e+001 8.800000e+001 4.122148e+000
      vertex   4.810000e+001 8.800000e+001 1.000000e+001
    endloop
  endfacet
  facet normal 0.000000e+000 1.000000e+000 0.000000e+000
    outer loop
      vertex   4.810000e+001 8.800000e+001 1.000000e+001
      vertex   5.209017e+001 8.800000e+001 4.122148e+000
      vertex   4.778791e+001 8.800000e+001 8.430998e+000
    endloop
  endfacet
  facet normal 0.000000e+000 1.000000e+000 0.000000e+000
    outer loop
      vertex   4.778791e+001 8.800000e+001 8.430998e+000
      vertex   5.209017e+001 8.800000e+001 4.122148e+000
      vertex   4.689914e+001 8.800000e+001 7.100862e+000
    endloop
  endfacet
  facet normal 0.000000e+000 -1.000000e+000 0.000000e+000
    outer loop
      vertex   5.351057e+001 6.800000e+001 6.909830e+000
      vertex   4.778791e+001 6.800000e+001 1.156900e+001
      vertex   5.209017e+001 6.800000e+001 4.122148e+000
    endloop
  endfacet
  facet normal 8.910066e-001 0.000000e+000 -4.539904e-001
    outer loop
      vertex   5.280037e+001 7.800000e+001 5.515989e+000
      vertex   5.209017e+001 6.800000e+001 4.122148e+000
      vertex   5.209017e+001 8.800000e+001 4.122148e+000
    endloop
  endfacet
  facet normal 8.910066e-001 0.000000e+000 -4.539904e-001
    outer loop
      vertex   5.280037e+001 7.800000e+001 5.515989e+000
      vertex   5.351057e+001 6.800000e+001 6.909830e+000
      vertex   5.209017e+001 6.800000e+001 4.122148e+000
    endloop
  endfacet
  facet normal 8.910066e-001 0.000000e+000 -4.539904e-001
    outer loop
      vertex   5.280037e+001 7.800000e+001 5.515989e+000
      vertex   5.351057e+001 8.800000e+001 6.909830e+000
      vertex   5.351057e+001 6.800000e+001 6.909830e+000
    endloop
  endfacet
  facet normal -1.950904e-001 0.000000e+000 9.807853e-001
    outer loop
      vertex   4.478450e+001 7.800000e+001 6.056047e+000
      vertex   4.400000e+001 8.800000e+001 5.900000e+000
      vertex   4.400000e+001 6.800000e+001 5.900000e+000
    endloop
  endfacet
  facet normal 1.950904e-001 -0.000000e+000 9.807853e-001
    outer loop
      vertex   4.321550e+001 7.800000e+001 6.056047e+000
      vertex   4.400000e+001 6.800000e+001 5.900000e+000
      vertex   4.400000e+001 8.800000e+001 5.900000e+000
    endloop
  endfacet
  facet normal -1.950904e-001 0.000000e+000 9.807853e-001
    outer loop
      vertex   4.478450e+001 7.800000e+001 6.056047e+000
      vertex   4.556900e+001 8.800000e+001 6.212094e+000
      vertex   4.400000e+001 8.800000e+001 5.900000e+000
    endloop
  endfacet
  facet normal 1.950904e-001 0.000000e+000 9.807853e-001
    outer loop
      vertex   4.321550e+001 7.800000e+001 6.056047e+000
      vertex   4.243100e+001 6.800000e+001 6.212094e+000
      vertex   4.400000e+001 6.800000e+001 5.900000e+000
    endloop
  endfacet
  facet normal -1.950904e-001 0.000000e+000 9.807853e-001
    outer loop
      vertex   4.478450e+001 7.800000e+001 6.056047e+000
      vertex   4.400000e+001 6.800000e+001 5.900000e+000
      vertex   4.556900e+001 6.800000e+001 6.212094e+000
    endloop
  endfacet
  facet normal 1.950904e-001 0.000000e+000 9.807853e-001
    outer loop
      vertex   4.321550e+001 7.800000e+001 6.056047e+000
      vertex   4.400000e+001 8.800000e+001 5.900000e+000
      vertex   4.243100e+001 8.800000e+001 6.212094e+000
    endloop
  endfacet
  facet normal -1.950904e-001 0.000000e+000 9.807853e-001
    outer loop
      vertex   4.478450e+001 7.800000e+001 6.056047e+000
      vertex   4.556900e+001 6.800000e+001 6.212094e+000
      vertex   4.556900e+001 8.800000e+001 6.212094e+000
    endloop
  endfacet
  facet normal 1.950904e-001 0.000000e+000 9.807853e-001
    outer loop
      vertex   4.321550e+001 7.800000e+001 6.056047e+000
      vertex   4.243100e+001 8.800000e+001 6.212094e+000
      vertex   4.243100e+001 6.800000e+001 6.212094e+000
    endloop
  endfacet
  facet normal -5.555692e-001 0.000000e+000 8.314703e-001
    outer loop
      vertex   4.623407e+001 7.800000e+001 6.656478e+000
      vertex   4.556900e+001 6.800000e+001 6.212094e+000
      vertex   4.689914e+001 6.800000e+001 7.100862e+000
    endloop
  endfacet
  facet normal -5.555692e-001 0.000000e+000 8.314703e-001
    outer loop
      vertex   4.623407e+001 7.800000e+001 6.656478e+000
      vertex   4.556900e+001 8.800000e+001 6.212094e+000
      vertex   4.556900e+001 6.800000e+001 6.212094e+000
    endloop
  endfacet
  facet normal -5.555692e-001 0.000000e+000 8.314703e-001
    outer loop
      vertex   4.623407e+001 7.800000e+001 6.656478e+000
      vertex   4.689914e+001 8.800000e+001 7.100862e+000
      vertex   4.556900e+001 8.800000e+001 6.212094e+000
    endloop
  endfacet
  facet normal 5.555692e-001 0.000000e+000 8.314703e-001
    outer loop
      vertex   4.176593e+001 7.800000e+001 6.656478e+000
      vertex   4.243100e+001 8.800000e+001 6.212094e+000
      vertex   4.110086e+001 8.800000e+001 7.100862e+000
    endloop
  endfacet
  facet normal 5.555692e-001 0.000000e+000 8.314703e-001
    outer loop
      vertex   4.176593e+001 7.800000e+001 6.656478e+000
      vertex   4.110086e+001 6.800000e+001 7.100862e+000
      vertex   4.243100e+001 6.800000e+001 6.212094e+000
    endloop
  endfacet
  facet normal 5.555692e-001 -0.000000e+000 8.314703e-001
    outer loop
      vertex   4.176593e+001 7.800000e+001 6.656478e+000
      vertex   4.243100e+001 6.800000e+001 6.212094e+000
      vertex   4.243100e+001 8.800000e+001 6.212094e+000
    endloop
  endfacet
  facet normal -5.555692e-001 0.000000e+000 8.314703e-001
    outer loop
      vertex   4.623407e+001 7.800000e+001 6.656478e+000
      vertex   4.689914e+001 6.800000e+001 7.100862e+000
      vertex   4.689914e+001 8.800000e+001 7.100862e+000
    endloop
  endfacet
  facet normal 5.555692e-001 0.000000e+000 8.314703e-001
    outer loop
      vertex   4.176593e+001 7.800000e+001 6.656478e+000
      vertex   4.110086e+001 8.800000e+001 7.100862e+000
      vertex   4.110086e+001 6.800000e+001 7.100862e+000
    endloop
  endfacet
  facet normal 9.876884e-001 0.000000e+000 -1.564340e-001
    outer loop
      vertex   5.375528e+001 7.800000e+001 8.454915e+000
      vertex   5.351057e+001 6.800000e+001 6.909830e+000
      vertex   5.351057e+001 8.800000e+001 6.909830e+000
    endloop
  endfacet
  facet normal 0.000000e+000 1.000000e+000 -0.000000e+000
    outer loop
      vertex   5.400000e+001 8.800000e+001 1.000000e+001
      vertex   5.351057e+001 8.800000e+001 6.909830e+000
      vertex   4.569828e+001 8.800000e+001 1.410000e+001
    endloop
  endfacet
  facet normal 0.000000e+000 -1.000000e+000 0.000000e+000
    outer loop
      vertex   5.351057e+001 6.800000e+001 6.909830e+000
      vertex   4.569828e+001 6.800000e+001 1.410000e+001
      vertex   4.689914e+001 6.800000e+001 1.289914e+001
    endloop
  endfacet
  facet normal 0.000000e+000 -1.000000e+000 0.000000e+000
    outer loop
      vertex   4.400000e+001 6.800000e+001 2.000000e+001
      vertex   4.569828e+001 6.800000e+001 1.410000e+001
      vertex   5.351057e+001 6.800000e+001 6.909830e+000
    endloop
  endfacet
  facet normal 0.000000e+000 -1.000000e+000 0.000000e+000
    outer loop
      vertex   5.351057e+001 6.800000e+001 6.909830e+000
      vertex   4.689914e+001 6.800000e+001 1.289914e+001
      vertex   4.778791e+001 6.800000e+001 1.156900e+001
    endloop
  endfacet
  facet normal 9.876884e-001 0.000000e+000 -1.564340e-001
    outer loop
      vertex   5.375528e+001 7.800000e+001 8.454915e+000
      vertex   5.400000e+001 6.800000e+001 1.000000e+001
      vertex   5.351057e+001 6.800000e+001 6.909830e+000
    endloop
  endfacet
  facet normal 0.000000e+000 -1.000000e+000 0.000000e+000
    outer loop
      vertex   5.400000e+001 6.800000e+001 1.000000e+001
      vertex   4.400000e+001 6.800000e+001 2.000000e+001
      vertex   5.351057e+001 6.800000e+001 6.909830e+000
    endloop
  endfacet
  facet normal 0.000000e+000 1.000000e+000 0.000000e+000
    outer loop
      vertex   4.569828e+001 8.800000e+001 1.410000e+001
      vertex   5.351057e+001 8.800000e+001 6.909830e+000
      vertex   4.689914e+001 8.800000e+001 1.289914e+001
    endloop
  endfacet
  facet normal 0.000000e+000 1.000000e+000 0.000000e+000
    outer loop
      vertex   4.689914e+001 8.800000e+001 1.289914e+001
      vertex   5.351057e+001 8.800000e+001 6.909830e+000
      vertex   4.778791e+001 8.800000e+001 1.156900e+001
    endloop
  endfacet
  facet normal 9.876884e-001 0.000000e+000 -1.564340e-001
    outer loop
      vertex   5.375528e+001 7.800000e+001 8.454915e+000
      vertex   5.351057e+001 8.800000e+001 6.909830e+000
      vertex   5.400000e+001 8.800000e+001 1.000000e+001
    endloop
  endfacet
  facet normal 8.314699e-001 1.718361e-007 5.555698e-001
    outer loop
      vertex   4.065648e+001 7.800000e+001 7.765930e+000
      vertex   4.110086e+001 8.800000e+001 7.100862e+000
      vertex   4.021209e+001 8.800000e+001 8.430998e+000
    endloop
  endfacet
  facet normal -8.314699e-001 1.718361e-007 5.555698e-001
    outer loop
      vertex   4.734352e+001 7.800000e+001 7.765930e+000
      vertex   4.778791e+001 8.800000e+001 8.430998e+000
      vertex   4.689914e+001 8.800000e+001 7.100862e+000
    endloop
  endfacet
  facet normal 8.314699e-001 -1.718361e-007 5.555698e-001
    outer loop
      vertex   4.065648e+001 7.800000e+001 7.765930e+000
      vertex   4.021209e+001 6.800000e+001 8.430998e+000
      vertex   4.110086e+001 6.800000e+001 7.100862e+000
    endloop
  endfacet
  facet normal -8.314699e-001 -1.718361e-007 5.555698e-001
    outer loop
      vertex   4.734352e+001 7.800000e+001 7.765930e+000
      vertex   4.689914e+001 6.800000e+001 7.100862e+000
      vertex   4.778791e+001 6.800000e+001 8.430998e+000
    endloop
  endfacet
  facet normal -8.314711e-001 0.000000e+000 5.555680e-001
    outer loop
      vertex   4.734352e+001 7.800000e+001 7.765930e+000
      vertex   4.689914e+001 8.800000e+001 7.100862e+000
      vertex   4.689914e+001 6.800000e+001 7.100862e+000
    endloop
  endfacet
  facet normal 8.314711e-001 -0.000000e+000 5.555680e-001
    outer loop
      vertex   4.065648e+001 7.800000e+001 7.765930e+000
      vertex   4.110086e+001 6.800000e+001 7.100862e+000
      vertex   4.110086e+001 8.800000e+001 7.100862e+000
    endloop
  endfacet
  facet normal 8.314687e-001 0.000000e+000 5.555715e-001
    outer loop
      vertex   4.065648e+001 7.800000e+001 7.765930e+000
      vertex   4.021209e+001 8.800000e+001 8.430998e+000
      vertex   4.021209e+001 6.800000e+001 8.430998e+000
    endloop
  endfacet
  facet normal -8.314687e-001 0.000000e+000 5.555715e-001
    outer loop
      vertex   4.734352e+001 7.800000e+001 7.765930e+000
      vertex   4.778791e+001 6.800000e+001 8.430998e+000
      vertex   4.778791e+001 8.800000e+001 8.430998e+000
    endloop
  endfacet
  facet normal 9.807855e-001 -1.870700e-007 1.950891e-001
    outer loop
      vertex   4.005605e+001 7.800000e+001 9.215499e+000
      vertex   4.021209e+001 8.800000e+001 8.430998e+000
      vertex   3.990000e+001 8.800000e+001 1.000000e+001
    endloop
  endfacet
  facet normal 9.807855e-001 1.870700e-007 1.950891e-001
    outer loop
      vertex   4.005605e+001 7.800000e+001 9.215499e+000
      vertex   3.990000e+001 6.800000e+001 1.000000e+001
      vertex   4.021209e+001 6.800000e+001 8.430998e+000
    endloop
  endfacet
  facet normal 9.807851e-001 -0.000000e+000 1.950914e-001
    outer loop
      vertex   4.005605e+001 7.800000e+001 9.215499e+000
      vertex   4.021209e+001 6.800000e+001 8.430998e+000
      vertex   4.021209e+001 8.800000e+001 8.430998e+000
    endloop
  endfacet
  facet normal -9.807855e-001 1.870700e-007 1.950891e-001
    outer loop
      vertex   4.794395e+001 7.800000e+001 9.215499e+000
      vertex   4.778791e+001 6.800000e+001 8.430998e+000
      vertex   4.810000e+001 6.800000e+001 1.000000e+001
    endloop
  endfacet
  facet normal -9.807851e-001 0.000000e+000 1.950914e-001
    outer loop
      vertex   4.794395e+001 7.800000e+001 9.215499e+000
      vertex   4.778791e+001 8.800000e+001 8.430998e+000
      vertex   4.778791e+001 6.800000e+001 8.430998e+000
    endloop
  endfacet
  facet normal -9.807855e-001 -1.870700e-007 1.950891e-001
    outer loop
      vertex   4.794395e+001 7.800000e+001 9.215499e+000
      vertex   4.810000e+001 8.800000e+001 1.000000e+001
      vertex   4.778791e+001 8.800000e+001 8.430998e+000
    endloop
  endfacet
  facet normal 9.876884e-001 0.000000e+000 -1.564340e-001
    outer loop
      vertex   5.375528e+001 7.800000e+001 8.454915e+000
      vertex   5.400000e+001 8.800000e+001 1.000000e+001
      vertex   5.400000e+001 6.800000e+001 1.000000e+001
    endloop
  endfacet
  facet normal -9.807860e-001 0.000000e+000 1.950868e-001
    outer loop
      vertex   4.794395e+001 7.800000e+001 9.215499e+000
      vertex   4.810000e+001 6.800000e+001 1.000000e+001
      vertex   4.810000e+001 8.800000e+001 1.000000e+001
    endloop
  endfacet
  facet normal 9.807860e-001 0.000000e+000 1.950868e-001
    outer loop
      vertex   4.005605e+001 7.800000e+001 9.215499e+000
      vertex   3.990000e+001 8.800000e+001 1.000000e+001
      vertex   3.990000e+001 6.800000e+001 1.000000e+001
    endloop
  endfacet
  facet normal 9.807855e-001 1.870700e-007 -1.950891e-001
    outer loop
      vertex   4.005605e+001 7.800000e+001 1.078450e+001
      vertex   4.021209e+001 6.800000e+001 1.156900e+001
      vertex   3.990000e+001 6.800000e+001 1.000000e+001
    endloop
  endfacet
  facet normal 9.807853e-001 1.950905e-001 0.000000e+000
    outer loop
      vertex   3.095985e+001 7.719637e+001 1.000000e+001
      vertex   3.080000e+001 7.800000e+001 2.000000e+001
      vertex   3.111971e+001 7.639273e+001 2.000000e+001
    endloop
  endfacet
  facet normal 9.807855e-001 -1.870700e-007 -1.950891e-001
    outer loop
      vertex   4.005605e+001 7.800000e+001 1.078450e+001
      vertex   3.990000e+001 8.800000e+001 1.000000e+001
      vertex   4.021209e+001 8.800000e+001 1.156900e+001
    endloop
  endfacet
  facet normal -9.807855e-001 -1.870700e-007 -1.950891e-001
    outer loop
      vertex   4.794395e+001 7.800000e+001 1.078450e+001
      vertex   4.778791e+001 8.800000e+001 1.156900e+001
      vertex   4.810000e+001 8.800000e+001 1.000000e+001
    endloop
  endfacet
  facet normal 9.807860e-001 0.000000e+000 -1.950868e-001
    outer loop
      vertex   4.005605e+001 7.800000e+001 1.078450e+001
      vertex   3.990000e+001 6.800000e+001 1.000000e+001
      vertex   3.990000e+001 8.800000e+001 1.000000e+001
    endloop
  endfacet
  facet normal -9.807855e-001 1.870700e-007 -1.950891e-001
    outer loop
      vertex   4.794395e+001 7.800000e+001 1.078450e+001
      vertex   4.810000e+001 6.800000e+001 1.000000e+001
      vertex   4.778791e+001 6.800000e+001 1.156900e+001
    endloop
  endfacet
  facet normal -9.807860e-001 -0.000000e+000 -1.950868e-001
    outer loop
      vertex   4.794395e+001 7.800000e+001 1.078450e+001
      vertex   4.810000e+001 8.800000e+001 1.000000e+001
      vertex   4.810000e+001 6.800000e+001 1.000000e+001
    endloop
  endfacet
  facet normal 5.555701e-001 8.314697e-001 0.000000e+000
    outer loop
      vertex   3.271144e+001 7.457493e+001 1.000000e+001
      vertex   3.203015e+001 7.503015e+001 2.000000e+001
      vertex   3.339273e+001 7.411971e+001 2.000000e+001
    endloop
  endfacet
  facet normal 8.314697e-001 5.555701e-001 0.000000e+000
    outer loop
      vertex   3.157493e+001 7.571144e+001 1.000000e+001
      vertex   3.111971e+001 7.639273e+001 2.000000e+001
      vertex   3.203015e+001 7.503015e+001 2.000000e+001
    endloop
  endfacet
  facet normal -1.564340e-001 9.876884e-001 -3.618545e-007
    outer loop
      vertex   3.345491e+001 8.775528e+001 1.000000e+001
      vertex   3.190983e+001 8.751057e+001 2.000000e+001
      vertex   3.500000e+001 8.800000e+001 2.000000e+001
    endloop
  endfacet
  facet normal -4.539903e-001 8.910066e-001 4.329589e-008
    outer loop
      vertex   3.051599e+001 8.680037e+001 1.000000e+001
      vertex   2.912215e+001 8.609017e+001 2.000000e+001
      vertex   3.190983e+001 8.751057e+001 2.000000e+001
    endloop
  endfacet
  facet normal 1.950882e-001 9.807857e-001 0.000000e+000
    outer loop
      vertex   3.419637e+001 7.395985e+001 1.000000e+001
      vertex   3.339273e+001 7.411971e+001 2.000000e+001
      vertex   3.500000e+001 7.380000e+001 2.000000e+001
    endloop
  endfacet
  facet normal -7.071071e-001 7.071065e-001 -2.023047e-007
    outer loop
      vertex   2.801599e+001 8.498401e+001 1.000000e+001
      vertex   2.690983e+001 8.387785e+001 2.000000e+001
      vertex   2.912215e+001 8.609017e+001 2.000000e+001
    endloop
  endfacet
  facet normal -8.910065e-001 4.539905e-001 -1.731836e-007
    outer loop
      vertex   2.619963e+001 8.248401e+001 1.000000e+001
      vertex   2.548944e+001 8.109017e+001 2.000000e+001
      vertex   2.690983e+001 8.387785e+001 2.000000e+001
    endloop
  endfacet
  facet normal -9.876883e-001 1.564345e-001 1.538683e-007
    outer loop
      vertex   2.524472e+001 7.954509e+001 1.000000e+001
      vertex   2.500000e+001 7.800000e+001 2.000000e+001
      vertex   2.548944e+001 8.109017e+001 2.000000e+001
    endloop
  endfacet
  facet normal -1.950882e-001 9.807857e-001 0.000000e+000
    outer loop
      vertex   3.580363e+001 7.395985e+001 1.000000e+001
      vertex   3.500000e+001 7.380000e+001 2.000000e+001
      vertex   3.660727e+001 7.411971e+001 2.000000e+001
    endloop
  endfacet
  facet normal -9.876883e-001 -1.564345e-001 1.538683e-007
    outer loop
      vertex   2.524472e+001 7.645491e+001 1.000000e+001
      vertex   2.548944e+001 7.490983e+001 2.000000e+001
      vertex   2.500000e+001 7.800000e+001 2.000000e+001
    endloop
  endfacet
  facet normal -8.910065e-001 -4.539905e-001 -1.731836e-007
    outer loop
      vertex   2.619963e+001 7.351599e+001 1.000000e+001
      vertex   2.690983e+001 7.212215e+001 2.000000e+001
      vertex   2.548944e+001 7.490983e+001 2.000000e+001
    endloop
  endfacet
  facet normal -7.071071e-001 -7.071065e-001 -2.023047e-007
    outer loop
      vertex   2.801599e+001 7.101599e+001 1.000000e+001
      vertex   2.912215e+001 6.990983e+001 2.000000e+001
      vertex   2.690983e+001 7.212215e+001 2.000000e+001
    endloop
  endfacet
  facet normal -5.555701e-001 8.314697e-001 0.000000e+000
    outer loop
      vertex   3.728856e+001 7.457493e+001 1.000000e+001
      vertex   3.660727e+001 7.411971e+001 2.000000e+001
      vertex   3.796985e+001 7.503015e+001 2.000000e+001
    endloop
  endfacet
  facet normal -4.539903e-001 -8.910066e-001 4.329589e-008
    outer loop
      vertex   3.051599e+001 6.919963e+001 1.000000e+001
      vertex   3.190983e+001 6.848943e+001 2.000000e+001
      vertex   2.912215e+001 6.990983e+001 2.000000e+001
    endloop
  endfacet
  facet normal -1.564340e-001 -9.876884e-001 -3.618545e-007
    outer loop
      vertex   3.345491e+001 6.824472e+001 1.000000e+001
      vertex   3.500000e+001 6.800000e+001 2.000000e+001
      vertex   3.190983e+001 6.848943e+001 2.000000e+001
    endloop
  endfacet
  facet normal -5.555701e-001 -8.314697e-001 0.000000e+000
    outer loop
      vertex   3.728856e+001 8.142507e+001 1.000000e+001
      vertex   3.796985e+001 8.096985e+001 2.000000e+001
      vertex   3.660727e+001 8.188029e+001 2.000000e+001
    endloop
  endfacet
  facet normal -8.314697e-001 5.555701e-001 0.000000e+000
    outer loop
      vertex   3.842507e+001 7.571144e+001 1.000000e+001
      vertex   3.796985e+001 7.503015e+001 2.000000e+001
      vertex   3.888029e+001 7.639273e+001 2.000000e+001
    endloop
  endfacet
  facet normal -0.000000e+000 1.000000e+000 -0.000000e+000
    outer loop
      vertex   5.400000e+001 8.800000e+001 1.000000e+001
      vertex   4.569828e+001 8.800000e+001 1.410000e+001
      vertex   3.500000e+001 8.800000e+001 2.000000e+001
    endloop
  endfacet
  facet normal 0.000000e+000 -1.000000e+000 0.000000e+000
    outer loop
      vertex   5.351057e+001 6.800000e+001 1.309017e+001
      vertex   4.709017e+001 6.800000e+001 1.951056e+001
      vertex   5.400000e+001 6.800000e+001 1.000000e+001
    endloop
  endfacet
  facet normal 0.000000e+000 -1.000000e+000 0.000000e+000
    outer loop
      vertex   4.709017e+001 6.800000e+001 1.951056e+001
      vertex   4.400000e+001 6.800000e+001 2.000000e+001
      vertex   5.400000e+001 6.800000e+001 1.000000e+001
    endloop
  endfacet
  facet normal -9.807853e-001 1.950905e-001 1.870699e-007
    outer loop
      vertex   3.904015e+001 7.719637e+001 1.000000e+001
      vertex   3.888029e+001 7.639273e+001 2.000000e+001
      vertex   3.920000e+001 7.800000e+001 2.000000e+001
    endloop
  endfacet
  facet normal 1.950882e-001 -9.807857e-001 0.000000e+000
    outer loop
      vertex   3.419637e+001 8.204015e+001 1.000000e+001
      vertex   3.500000e+001 8.220000e+001 2.000000e+001
      vertex   3.339273e+001 8.188029e+001 2.000000e+001
    endloop
  endfacet
  facet normal 5.555701e-001 -8.314697e-001 0.000000e+000
    outer loop
      vertex   3.271144e+001 8.142507e+001 1.000000e+001
      vertex   3.339273e+001 8.188029e+001 2.000000e+001
      vertex   3.203015e+001 8.096985e+001 2.000000e+001
    endloop
  endfacet
  facet normal 9.876884e-001 0.000000e+000 1.564340e-001
    outer loop
      vertex   5.375528e+001 7.800000e+001 1.154508e+001
      vertex   5.351057e+001 6.800000e+001 1.309017e+001
      vertex   5.400000e+001 6.800000e+001 1.000000e+001
    endloop
  endfacet
  facet normal -9.807853e-001 -1.950905e-001 1.870699e-007
    outer loop
      vertex   3.904015e+001 7.880363e+001 1.000000e+001
      vertex   3.920000e+001 7.800000e+001 2.000000e+001
      vertex   3.888029e+001 7.960727e+001 2.000000e+001
    endloop
  endfacet
  facet normal 9.876884e-001 -0.000000e+000 1.564340e-001
    outer loop
      vertex   5.375528e+001 7.800000e+001 1.154508e+001
      vertex   5.400000e+001 6.800000e+001 1.000000e+001
      vertex   5.400000e+001 8.800000e+001 1.000000e+001
    endloop
  endfacet
  facet normal 0.000000e+000 1.000000e+000 0.000000e+000
    outer loop
      vertex   4.400000e+001 8.800000e+001 2.000000e+001
      vertex   5.400000e+001 8.800000e+001 1.000000e+001
      vertex   3.500000e+001 8.800000e+001 2.000000e+001
    endloop
  endfacet
  facet normal 9.807853e-001 -1.950905e-001 0.000000e+000
    outer loop
      vertex   3.095985e+001 7.880363e+001 1.000000e+001
      vertex   3.111971e+001 7.960727e+001 2.000000e+001
      vertex   3.080000e+001 7.800000e+001 2.000000e+001
    endloop
  endfacet
  facet normal -8.314697e-001 -5.555701e-001 0.000000e+000
    outer loop
      vertex   3.842507e+001 8.028856e+001 1.000000e+001
      vertex   3.888029e+001 7.960727e+001 2.000000e+001
      vertex   3.796985e+001 8.096985e+001 2.000000e+001
    endloop
  endfacet
  facet normal 9.876884e-001 0.000000e+000 1.564340e-001
    outer loop
      vertex   5.375528e+001 7.800000e+001 1.154508e+001
      vertex   5.400000e+001 8.800000e+001 1.000000e+001
      vertex   5.351057e+001 8.800000e+001 1.309017e+001
    endloop
  endfacet
  facet normal 0.000000e+000 1.000000e+000 0.000000e+000
    outer loop
      vertex   5.351057e+001 8.800000e+001 1.309017e+001
      vertex   5.400000e+001 8.800000e+001 1.000000e+001
      vertex   4.400000e+001 8.800000e+001 2.000000e+001
    endloop
  endfacet
  facet normal -1.950882e-001 -9.807857e-001 0.000000e+000
    outer loop
      vertex   3.580363e+001 8.204015e+001 1.000000e+001
      vertex   3.660727e+001 8.188029e+001 2.000000e+001
      vertex   3.500000e+001 8.220000e+001 2.000000e+001
    endloop
  endfacet
  facet normal 8.314697e-001 -5.555701e-001 0.000000e+000
    outer loop
      vertex   3.157493e+001 8.028856e+001 1.000000e+001
      vertex   3.203015e+001 8.096985e+001 2.000000e+001
      vertex   3.111971e+001 7.960727e+001 2.000000e+001
    endloop
  endfacet
  facet normal -9.807851e-001 0.000000e+000 -1.950914e-001
    outer loop
      vertex   4.794395e+001 7.800000e+001 1.078450e+001
      vertex   4.778791e+001 6.800000e+001 1.156900e+001
      vertex   4.778791e+001 8.800000e+001 1.156900e+001
    endloop
  endfacet
  facet normal 9.807851e-001 0.000000e+000 -1.950914e-001
    outer loop
      vertex   4.005605e+001 7.800000e+001 1.078450e+001
      vertex   4.021209e+001 8.800000e+001 1.156900e+001
      vertex   4.021209e+001 6.800000e+001 1.156900e+001
    endloop
  endfacet
  facet normal 9.876884e-001 0.000000e+000 1.564340e-001
    outer loop
      vertex   5.375528e+001 7.800000e+001 1.154508e+001
      vertex   5.351057e+001 8.800000e+001 1.309017e+001
      vertex   5.351057e+001 6.800000e+001 1.309017e+001
    endloop
  endfacet
  facet normal -8.314698e-001 -1.585903e-007 -5.555699e-001
    outer loop
      vertex   4.734352e+001 7.800000e+001 1.223407e+001
      vertex   4.778791e+001 6.800000e+001 1.156900e+001
      vertex   4.689914e+001 6.800000e+001 1.289914e+001
    endloop
  endfacet
  facet normal -8.314698e-001 1.585903e-007 -5.555699e-001
    outer loop
      vertex   4.734352e+001 7.800000e+001 1.223407e+001
      vertex   4.689914e+001 8.800000e+001 1.289914e+001
      vertex   4.778791e+001 8.800000e+001 1.156900e+001
    endloop
  endfacet
  facet normal -8.314687e-001 -0.000000e+000 -5.555715e-001
    outer loop
      vertex   4.734352e+001 7.800000e+001 1.223407e+001
      vertex   4.778791e+001 8.800000e+001 1.156900e+001
      vertex   4.778791e+001 6.800000e+001 1.156900e+001
    endloop
  endfacet
  facet normal 0.000000e+000 -1.000000e+000 0.000000e+000
    outer loop
      vertex   3.500000e+001 6.800000e+001 2.000000e+001
      vertex   4.021209e+001 6.800000e+001 1.156900e+001
      vertex   4.110086e+001 6.800000e+001 1.289914e+001
    endloop
  endfacet
  facet normal 8.314698e-001 1.585903e-007 -5.555699e-001
    outer loop
      vertex   4.065648e+001 7.800000e+001 1.223407e+001
      vertex   4.021209e+001 8.800000e+001 1.156900e+001
      vertex   4.110086e+001 8.800000e+001 1.289914e+001
    endloop
  endfacet
  facet normal 8.314687e-001 0.000000e+000 -5.555715e-001
    outer loop
      vertex   4.065648e+001 7.800000e+001 1.223407e+001
      vertex   4.021209e+001 6.800000e+001 1.156900e+001
      vertex   4.021209e+001 8.800000e+001 1.156900e+001
    endloop
  endfacet
  facet normal 8.314698e-001 -1.585903e-007 -5.555699e-001
    outer loop
      vertex   4.065648e+001 7.800000e+001 1.223407e+001
      vertex   4.110086e+001 6.800000e+001 1.289914e+001
      vertex   4.021209e+001 6.800000e+001 1.156900e+001
    endloop
  endfacet
  facet normal 0.000000e+000 1.000000e+000 0.000000e+000
    outer loop
      vertex   3.500000e+001 8.800000e+001 2.000000e+001
      vertex   4.110086e+001 8.800000e+001 1.289914e+001
      vertex   4.021209e+001 8.800000e+001 1.156900e+001
    endloop
  endfacet
  facet normal 8.314709e-001 0.000000e+000 -5.555682e-001
    outer loop
      vertex   4.065648e+001 7.800000e+001 1.223407e+001
      vertex   4.110086e+001 8.800000e+001 1.289914e+001
      vertex   4.110086e+001 6.800000e+001 1.289914e+001
    endloop
  endfacet
  facet normal -8.314709e-001 0.000000e+000 -5.555682e-001
    outer loop
      vertex   4.734352e+001 7.800000e+001 1.223407e+001
      vertex   4.689914e+001 6.800000e+001 1.289914e+001
      vertex   4.689914e+001 8.800000e+001 1.289914e+001
    endloop
  endfacet
  facet normal 0.000000e+000 1.000000e+000 -0.000000e+000
    outer loop
      vertex   4.230172e+001 8.800000e+001 1.410000e+001
      vertex   4.110086e+001 8.800000e+001 1.289914e+001
      vertex   3.500000e+001 8.800000e+001 2.000000e+001
    endloop
  endfacet
  facet normal -7.071068e-001 -1.348699e-007 -7.071068e-001
    outer loop
      vertex   4.629871e+001 7.800000e+001 1.349957e+001
      vertex   4.689914e+001 6.800000e+001 1.289914e+001
      vertex   4.569828e+001 6.800000e+001 1.410000e+001
    endloop
  endfacet
  facet normal 7.071068e-001 -1.348699e-007 -7.071068e-001
    outer loop
      vertex   4.170129e+001 7.800000e+001 1.349957e+001
      vertex   4.230172e+001 6.800000e+001 1.410000e+001
      vertex   4.110086e+001 6.800000e+001 1.289914e+001
    endloop
  endfacet
  facet normal 0.000000e+000 -1.000000e+000 0.000000e+000
    outer loop
      vertex   4.230172e+001 6.800000e+001 1.410000e+001
      vertex   3.500000e+001 6.800000e+001 2.000000e+001
      vertex   4.110086e+001 6.800000e+001 1.289914e+001
    endloop
  endfacet
  facet normal 7.071057e-001 0.000000e+000 -7.071079e-001
    outer loop
      vertex   4.170129e+001 7.800000e+001 1.349957e+001
      vertex   4.110086e+001 6.800000e+001 1.289914e+001
      vertex   4.110086e+001 8.800000e+001 1.289914e+001
    endloop
  endfacet
  facet normal 7.071068e-001 1.348699e-007 -7.071068e-001
    outer loop
      vertex   4.170129e+001 7.800000e+001 1.349957e+001
      vertex   4.110086e+001 8.800000e+001 1.289914e+001
      vertex   4.230172e+001 8.800000e+001 1.410000e+001
    endloop
  endfacet
  facet normal -7.071068e-001 1.348699e-007 -7.071068e-001
    outer loop
      vertex   4.629871e+001 7.800000e+001 1.349957e+001
      vertex   4.569828e+001 8.800000e+001 1.410000e+001
      vertex   4.689914e+001 8.800000e+001 1.289914e+001
    endloop
  endfacet
  facet normal -7.071057e-001 -0.000000e+000 -7.071079e-001
    outer loop
      vertex   4.629871e+001 7.800000e+001 1.349957e+001
      vertex   4.689914e+001 8.800000e+001 1.289914e+001
      vertex   4.689914e+001 6.800000e+001 1.289914e+001
    endloop
  endfacet
  facet normal 8.910066e-001 -2.164795e-008 4.539904e-001
    outer loop
      vertex   5.280037e+001 7.800000e+001 1.448401e+001
      vertex   5.351057e+001 8.800000e+001 1.309017e+001
      vertex   5.209017e+001 8.800000e+001 1.587785e+001
    endloop
  endfacet
  facet normal 0.000000e+000 1.000000e+000 0.000000e+000
    outer loop
      vertex   5.209017e+001 8.800000e+001 1.587785e+001
      vertex   5.351057e+001 8.800000e+001 1.309017e+001
      vertex   4.709017e+001 8.800000e+001 1.951056e+001
    endloop
  endfacet
  facet normal 0.000000e+000 -1.000000e+000 0.000000e+000
    outer loop
      vertex   5.209017e+001 6.800000e+001 1.587785e+001
      vertex   4.987785e+001 6.800000e+001 1.809017e+001
      vertex   5.351057e+001 6.800000e+001 1.309017e+001
    endloop
  endfacet
  facet normal 0.000000e+000 1.000000e+000 0.000000e+000
    outer loop
      vertex   4.709017e+001 8.800000e+001 1.951056e+001
      vertex   5.351057e+001 8.800000e+001 1.309017e+001
      vertex   4.400000e+001 8.800000e+001 2.000000e+001
    endloop
  endfacet
  facet normal 8.910065e-001 -0.000000e+000 4.539905e-001
    outer loop
      vertex   5.280037e+001 7.800000e+001 1.448401e+001
      vertex   5.351057e+001 6.800000e+001 1.309017e+001
      vertex   5.351057e+001 8.800000e+001 1.309017e+001
    endloop
  endfacet
  facet normal 8.910066e-001 2.164795e-008 4.539904e-001
    outer loop
      vertex   5.280037e+001 7.800000e+001 1.448401e+001
      vertex   5.209017e+001 6.800000e+001 1.587785e+001
      vertex   5.351057e+001 6.800000e+001 1.309017e+001
    endloop
  endfacet
  facet normal 0.000000e+000 -1.000000e+000 0.000000e+000
    outer loop
      vertex   4.987785e+001 6.800000e+001 1.809017e+001
      vertex   4.709017e+001 6.800000e+001 1.951056e+001
      vertex   5.351057e+001 6.800000e+001 1.309017e+001
    endloop
  endfacet
  facet normal -7.071079e-001 0.000000e+000 -7.071057e-001
    outer loop
      vertex   4.629871e+001 7.800000e+001 1.349957e+001
      vertex   4.569828e+001 6.800000e+001 1.410000e+001
      vertex   4.569828e+001 8.800000e+001 1.410000e+001
    endloop
  endfacet
  facet normal 7.071079e-001 0.000000e+000 -7.071057e-001
    outer loop
      vertex   4.170129e+001 7.800000e+001 1.349957e+001
      vertex   4.230172e+001 8.800000e+001 1.410000e+001
      vertex   4.230172e+001 6.800000e+001 1.410000e+001
    endloop
  endfacet
  facet normal 0.000000e+000 -1.000000e+000 0.000000e+000
    outer loop
      vertex   4.569828e+001 6.800000e+001 1.410000e+001
      vertex   3.500000e+001 6.800000e+001 2.000000e+001
      vertex   4.230172e+001 6.800000e+001 1.410000e+001
    endloop
  endfacet
  facet normal 0.000000e+000 1.000000e+000 -0.000000e+000
    outer loop
      vertex   4.569828e+001 8.800000e+001 1.410000e+001
      vertex   4.230172e+001 8.800000e+001 1.410000e+001
      vertex   3.500000e+001 8.800000e+001 2.000000e+001
    endloop
  endfacet
  facet normal 0.000000e+000 0.000000e+000 -1.000000e+000
    outer loop
      vertex   4.400000e+001 7.800000e+001 1.410000e+001
      vertex   4.230172e+001 6.800000e+001 1.410000e+001
      vertex   4.230172e+001 8.800000e+001 1.410000e+001
    endloop
  endfacet
  facet normal 0.000000e+000 0.000000e+000 -1.000000e+000
    outer loop
      vertex   4.400000e+001 7.800000e+001 1.410000e+001
      vertex   4.569828e+001 6.800000e+001 1.410000e+001
      vertex   4.230172e+001 6.800000e+001 1.410000e+001
    endloop
  endfacet
  facet normal 0.000000e+000 -0.000000e+000 -1.000000e+000
    outer loop
      vertex   4.400000e+001 7.800000e+001 1.410000e+001
      vertex   4.569828e+001 8.800000e+001 1.410000e+001
      vertex   4.569828e+001 6.800000e+001 1.410000e+001
    endloop
  endfacet
  facet normal 0.000000e+000 0.000000e+000 -1.000000e+000
    outer loop
      vertex   4.400000e+001 7.800000e+001 1.410000e+001
      vertex   4.230172e+001 8.800000e+001 1.410000e+001
      vertex   4.569828e+001 8.800000e+001 1.410000e+001
    endloop
  endfacet
  facet normal 0.000000e+000 -1.000000e+000 0.000000e+000
    outer loop
      vertex   4.400000e+001 6.800000e+001 2.000000e+001
      vertex   3.500000e+001 6.800000e+001 2.000000e+001
      vertex   4.569828e+001 6.800000e+001 1.410000e+001
    endloop
  endfacet
  facet normal 8.910066e-001 0.000000e+000 4.539903e-001
    outer loop
      vertex   5.280037e+001 7.800000e+001 1.448401e+001
      vertex   5.209017e+001 8.800000e+001 1.587785e+001
      vertex   5.209017e+001 6.800000e+001 1.587785e+001
    endloop
  endfacet
  facet normal 7.071066e-001 -3.371749e-008 7.071069e-001
    outer loop
      vertex   5.098401e+001 7.800000e+001 1.698401e+001
      vertex   5.209017e+001 8.800000e+001 1.587785e+001
      vertex   4.987785e+001 8.800000e+001 1.809017e+001
    endloop
  endfacet
  facet normal 0.000000e+000 1.000000e+000 0.000000e+000
    outer loop
      vertex   4.987785e+001 8.800000e+001 1.809017e+001
      vertex   5.209017e+001 8.800000e+001 1.587785e+001
      vertex   4.709017e+001 8.800000e+001 1.951056e+001
    endloop
  endfacet
  facet normal 7.071066e-001 3.371749e-008 7.071069e-001
    outer loop
      vertex   5.098401e+001 7.800000e+001 1.698401e+001
      vertex   4.987785e+001 6.800000e+001 1.809017e+001
      vertex   5.209017e+001 6.800000e+001 1.587785e+001
    endloop
  endfacet
  facet normal 7.071065e-001 -0.000000e+000 7.071071e-001
    outer loop
      vertex   5.098401e+001 7.800000e+001 1.698401e+001
      vertex   5.209017e+001 6.800000e+001 1.587785e+001
      vertex   5.209017e+001 8.800000e+001 1.587785e+001
    endloop
  endfacet
  facet normal 7.071068e-001 0.000000e+000 7.071068e-001
    outer loop
      vertex   5.098401e+001 7.800000e+001 1.698401e+001
      vertex   4.987785e+001 8.800000e+001 1.809017e+001
      vertex   4.987785e+001 6.800000e+001 1.809017e+001
    endloop
  endfacet
  facet normal 4.539905e-001 0.000000e+000 8.910065e-001
    outer loop
      vertex   4.848401e+001 7.800000e+001 1.880037e+001
      vertex   4.987785e+001 8.800000e+001 1.809017e+001
      vertex   4.709017e+001 8.800000e+001 1.951056e+001
    endloop
  endfacet
  facet normal 4.539905e-001 0.000000e+000 8.910065e-001
    outer loop
      vertex   4.848401e+001 7.800000e+001 1.880037e+001
      vertex   4.709017e+001 6.800000e+001 1.951056e+001
      vertex   4.987785e+001 6.800000e+001 1.809017e+001
    endloop
  endfacet
  facet normal 4.539905e-001 -0.000000e+000 8.910065e-001
    outer loop
      vertex   4.848401e+001 7.800000e+001 1.880037e+001
      vertex   4.987785e+001 6.800000e+001 1.809017e+001
      vertex   4.987785e+001 8.800000e+001 1.809017e+001
    endloop
  endfacet
  facet normal 4.539905e-001 0.000000e+000 8.910065e-001
    outer loop
      vertex   4.848401e+001 7.800000e+001 1.880037e+001
      vertex   4.709017e+001 8.800000e+001 1.951056e+001
      vertex   4.709017e+001 6.800000e+001 1.951056e+001
    endloop
  endfacet
  facet normal 1.564351e-001 -0.000000e+000 9.876882e-001
    outer loop
      vertex   4.554509e+001 7.800000e+001 1.975528e+001
      vertex   4.709017e+001 6.800000e+001 1.951056e+001
      vertex   4.709017e+001 8.800000e+001 1.951056e+001
    endloop
  endfacet
  facet normal 1.564345e-001 -9.419330e-008 9.876883e-001
    outer loop
      vertex   4.554509e+001 7.800000e+001 1.975528e+001
      vertex   4.400000e+001 6.800000e+001 2.000000e+001
      vertex   4.709017e+001 6.800000e+001 1.951056e+001
    endloop
  endfacet
  facet normal 1.564345e-001 9.419330e-008 9.876883e-001
    outer loop
      vertex   4.554509e+001 7.800000e+001 1.975528e+001
      vertex   4.709017e+001 8.800000e+001 1.951056e+001
      vertex   4.400000e+001 8.800000e+001 2.000000e+001
    endloop
  endfacet
  facet normal 1.564339e-001 0.000000e+000 9.876884e-001
    outer loop
      vertex   4.554509e+001 7.800000e+001 1.975528e+001
      vertex   4.400000e+001 8.800000e+001 2.000000e+001
      vertex   4.400000e+001 6.800000e+001 2.000000e+001
    endloop
  endfacet
  facet normal -0.000000e+000 -0.000000e+000 1.000000e+000
    outer loop
      vertex   3.500000e+001 8.800000e+001 2.000000e+001
      vertex   3.796985e+001 8.096985e+001 2.000000e+001
      vertex   3.888029e+001 7.960727e+001 2.000000e+001
    endloop
  endfacet
  facet normal 0.000000e+000 0.000000e+000 1.000000e+000
    outer loop
      vertex   3.500000e+001 6.800000e+001 2.000000e+001
      vertex   2.500000e+001 7.800000e+001 2.000000e+001
      vertex   3.190983e+001 6.848943e+001 2.000000e+001
    endloop
  endfacet
  facet normal 0.000000e+000 0.000000e+000 1.000000e+000
    outer loop
      vertex   3.339273e+001 7.411971e+001 2.000000e+001
      vertex   3.203015e+001 7.503015e+001 2.000000e+001
      vertex   3.500000e+001 6.800000e+001 2.000000e+001
    endloop
  endfacet
  facet normal -0.000000e+000 0.000000e+000 1.000000e+000
    outer loop
      vertex   3.190983e+001 8.751057e+001 2.000000e+001
      vertex   2.912215e+001 8.609017e+001 2.000000e+001
      vertex   3.660727e+001 8.188029e+001 2.000000e+001
    endloop
  endfacet
  facet normal -0.000000e+000 -0.000000e+000 1.000000e+000
    outer loop
      vertex   3.190983e+001 8.751057e+001 2.000000e+001
      vertex   3.660727e+001 8.188029e+001 2.000000e+001
      vertex   3.796985e+001 8.096985e+001 2.000000e+001
    endloop
  endfacet
  facet normal -0.000000e+000 -0.000000e+000 1.000000e+000
    outer loop
      vertex   3.888029e+001 7.960727e+001 2.000000e+001
      vertex   3.920000e+001 7.800000e+001 2.000000e+001
      vertex   4.400000e+001 6.800000e+001 2.000000e+001
    endloop
  endfacet
  facet normal 0.000000e+000 0.000000e+000 1.000000e+000
    outer loop
      vertex   3.660727e+001 8.188029e+001 2.000000e+001
      vertex   2.912215e+001 8.609017e+001 2.000000e+001
      vertex   3.500000e+001 8.220000e+001 2.000000e+001
    endloop
  endfacet
  facet normal 0.000000e+000 0.000000e+000 1.000000e+000
    outer loop
      vertex   3.339273e+001 8.188029e+001 2.000000e+001
      vertex   2.912215e+001 8.609017e+001 2.000000e+001
      vertex   3.203015e+001 8.096985e+001 2.000000e+001
    endloop
  endfacet
  facet normal -0.000000e+000 0.000000e+000 1.000000e+000
    outer loop
      vertex   3.920000e+001 7.800000e+001 2.000000e+001
      vertex   3.888029e+001 7.639273e+001 2.000000e+001
      vertex   4.400000e+001 6.800000e+001 2.000000e+001
    endloop
  endfacet
  facet normal 0.000000e+000 0.000000e+000 1.000000e+000
    outer loop
      vertex   3.500000e+001 8.220000e+001 2.000000e+001
      vertex   2.912215e+001 8.609017e+001 2.000000e+001
      vertex   3.339273e+001 8.188029e+001 2.000000e+001
    endloop
  endfacet
  facet normal -0.000000e+000 0.000000e+000 1.000000e+000
    outer loop
      vertex   4.400000e+001 8.800000e+001 2.000000e+001
      vertex   3.888029e+001 7.960727e+001 2.000000e+001
      vertex   4.400000e+001 6.800000e+001 2.000000e+001
    endloop
  endfacet
  facet normal -0.000000e+000 0.000000e+000 1.000000e+000
    outer loop
      vertex   3.500000e+001 8.800000e+001 2.000000e+001
      vertex   3.190983e+001 8.751057e+001 2.000000e+001
      vertex   3.796985e+001 8.096985e+001 2.000000e+001
    endloop
  endfacet
  facet normal -0.000000e+000 0.000000e+000 1.000000e+000
    outer loop
      vertex   4.400000e+001 8.800000e+001 2.000000e+001
      vertex   3.500000e+001 8.800000e+001 2.000000e+001
      vertex   3.888029e+001 7.960727e+001 2.000000e+001
    endloop
  endfacet
  facet normal -0.000000e+000 0.000000e+000 1.000000e+000
    outer loop
      vertex   2.548944e+001 8.109017e+001 2.000000e+001
      vertex   2.500000e+001 7.800000e+001 2.000000e+001
      vertex   3.500000e+001 6.800000e+001 2.000000e+001
    endloop
  endfacet
  facet normal -0.000000e+000 -0.000000e+000 1.000000e+000
    outer loop
      vertex   2.500000e+001 7.800000e+001 2.000000e+001
      vertex   2.548944e+001 7.490983e+001 2.000000e+001
      vertex   3.190983e+001 6.848943e+001 2.000000e+001
    endloop
  endfacet
  facet normal 0.000000e+000 0.000000e+000 1.000000e+000
    outer loop
      vertex   3.190983e+001 6.848943e+001 2.000000e+001
      vertex   2.548944e+001 7.490983e+001 2.000000e+001
      vertex   2.912215e+001 6.990983e+001 2.000000e+001
    endloop
  endfacet
  facet normal -0.000000e+000 -0.000000e+000 1.000000e+000
    outer loop
      vertex   2.548944e+001 7.490983e+001 2.000000e+001
      vertex   2.690983e+001 7.212215e+001 2.000000e+001
      vertex   2.912215e+001 6.990983e+001 2.000000e+001
    endloop
  endfacet
  facet normal -0.000000e+000 0.000000e+000 1.000000e+000
    outer loop
      vertex   2.912215e+001 8.609017e+001 2.000000e+001
      vertex   2.690983e+001 8.387785e+001 2.000000e+001
      vertex   3.203015e+001 8.096985e+001 2.000000e+001
    endloop
  endfacet
  facet normal -0.000000e+000 0.000000e+000 1.000000e+000
    outer loop
      vertex   3.796985e+001 7.503015e+001 2.000000e+001
      vertex   3.660727e+001 7.411971e+001 2.000000e+001
      vertex   4.400000e+001 6.800000e+001 2.000000e+001
    endloop
  endfacet
  facet normal 0.000000e+000 0.000000e+000 1.000000e+000
    outer loop
      vertex   3.203015e+001 8.096985e+001 2.000000e+001
      vertex   2.690983e+001 8.387785e+001 2.000000e+001
      vertex   3.111971e+001 7.960727e+001 2.000000e+001
    endloop
  endfacet
  facet normal 0.000000e+000 0.000000e+000 1.000000e+000
    outer loop
      vertex   4.400000e+001 6.800000e+001 2.000000e+001
      vertex   3.660727e+001 7.411971e+001 2.000000e+001
      vertex   3.500000e+001 6.800000e+001 2.000000e+001
    endloop
  endfacet
  facet normal -0.000000e+000 0.000000e+000 1.000000e+000
    outer loop
      vertex   2.690983e+001 8.387785e+001 2.000000e+001
      vertex   2.548944e+001 8.109017e+001 2.000000e+001
      vertex   3.111971e+001 7.960727e+001 2.000000e+001
    endloop
  endfacet
  facet normal -0.000000e+000 0.000000e+000 1.000000e+000
    outer loop
      vertex   3.660727e+001 7.411971e+001 2.000000e+001
      vertex   3.500000e+001 7.380000e+001 2.000000e+001
      vertex   3.500000e+001 6.800000e+001 2.000000e+001
    endloop
  endfacet
  facet normal 0.000000e+000 0.000000e+000 1.000000e+000
    outer loop
      vertex   3.203015e+001 7.503015e+001 2.000000e+001
      vertex   2.548944e+001 8.109017e+001 2.000000e+001
      vertex   3.500000e+001 6.800000e+001 2.000000e+001
    endloop
  endfacet
  facet normal -0.000000e+000 0.000000e+000 1.000000e+000
    outer loop
      vertex   3.888029e+001 7.639273e+001 2.000000e+001
      vertex   3.796985e+001 7.503015e+001 2.000000e+001
      vertex   4.400000e+001 6.800000e+001 2.000000e+001
    endloop
  endfacet
  facet normal 0.000000e+000 0.000000e+000 1.000000e+000
    outer loop
      vertex   3.111971e+001 7.639273e+001 2.000000e+001
      vertex   2.548944e+001 8.109017e+001 2.000000e+001
      vertex   3.203015e+001 7.503015e+001 2.000000e+001
    endloop
  endfacet
  facet normal 0.000000e+000 0.000000e+000 1.000000e+000
    outer loop
      vertex   3.080000e+001 7.800000e+001 2.000000e+001
      vertex   2.548944e+001 8.109017e+001 2.000000e+001
      vertex   3.111971e+001 7.639273e+001 2.000000e+001
    endloop
  endfacet
  facet normal 0.000000e+000 0.000000e+000 1.000000e+000
    outer loop
      vertex   3.500000e+001 7.380000e+001 2.000000e+001
      vertex   3.339273e+001 7.411971e+001 2.000000e+001
      vertex   3.500000e+001 6.800000e+001 2.000000e+001
    endloop
  endfacet
  facet normal 0.000000e+000 0.000000e+000 1.000000e+000
    outer loop
      vertex   3.111971e+001 7.960727e+001 2.000000e+001
      vertex   2.548944e+001 8.109017e+001 2.000000e+001
      vertex   3.080000e+001 7.800000e+001 2.000000e+001
    endloop
  endfacet
endsolid
